<svg xmlns="http://www.w3.org/2000/svg" width="140" height="42" fill="none" viewBox="0 0 140 42"><path fill="#fff" d="M42.597 26.886c0 .71.13 1.282.512 1.858.73 1.018 2.052 1.728 3.548 1.991a8.7 8.7 0 0 0 3.378 0c1.58-.221 3.036-.885 3.975-2.258l1.838 1.152c-1.241 2.079-3.334 2.968-5.514 3.322-1.282.222-2.44.267-3.721.042-2.181-.354-4.148-1.373-5.257-2.922-.685-1.018-.94-2.125-.94-3.364V16.88c0-2.922 2.137-4.738 4.919-5.535a11.34 11.34 0 0 1 6.2 0c5.559 1.728 6.498 9.384 1.326 12.218-2.992 1.683-7.397 1.06-10.264 1.06zm0-4.208c1.839-.087 6.37.397 9.236-1.018 3.632-1.77 2.95-7.084-.855-8.19a9.9 9.9 0 0 0-5.087 0c-1.838.53-3.294 1.682-3.294 3.41zm21.85-20.851v9.342h5.087v1.992c-1.71 0-3.378 0-5.088.045v13.592c0 3.72 2.653 4.074 5.475 4.162v2.037c-3.89.221-7.611-1.24-7.611-6.153V13.161h-3.677v-1.992h3.677V1.827z"/><path fill="#00ffa3" d="m79.54 33.127-5.346-5.669c-1.367-1.46-1.669-2.258-1.669-3.761V11.211h2.181v12.486c0 .93.13 1.24.726 1.904l4.49 4.87 4.491-4.87c.641-.664.77-.977.77-1.904V11.211h2.137v12.486c0 .93.129 1.24.77 1.904l4.49 4.87 4.491-4.87c.597-.664.726-.977.726-1.904V11.211h2.181v12.486c0 1.507-.298 2.304-1.665 3.761l-5.346 5.669h-.814l-5.901-6.462-5.902 6.462zm26.767-6.241c0 .71.129 1.282.512 1.858.725 1.018 2.052 1.728 3.547 1.991a8.7 8.7 0 0 0 3.378 0c1.581-.221 3.036-.885 3.975-2.258l1.839 1.152c-1.242 2.079-3.334 2.968-5.515 3.322-1.282.222-2.435.267-3.721.042-2.181-.354-4.148-1.373-5.257-2.922-.685-1.018-.943-2.125-.943-3.364V16.88c0-2.922 2.137-4.738 4.918-5.535a11.34 11.34 0 0 1 6.2 0c5.559 1.728 6.499 9.384 1.326 12.218-2.991 1.683-7.397 1.06-10.259 1.06zm0-4.208c1.838-.087 6.369.397 9.235-1.018 3.633-1.77 2.951-7.084-.854-8.19a9.9 9.9 0 0 0-5.088 0c-1.838.53-3.293 1.682-3.293 3.41zm19.841-20.942v11.997c3.508-4.295 13.852-2.7 13.852 3.895v9.785c0 2.922-2.137 4.78-4.918 5.535-3.165.885-7.397.042-9.107-2.48v2.434h-2.011V1.732h2.184zm0 24.708c0 3.364 3.165 4.692 5.858 4.692.855 0 1.753-.088 2.523-.31 1.839-.53 3.294-1.681 3.294-3.41v-9.872c0-5.577-11.675-5.135-11.675-.31z"/><path fill="#fff" d="M23.363 19.367v1.58h4.487c-.736 4.589-4.582 8.102-9.217 8.102-5.157 0-9.35-4.345-9.35-9.682 0-5.34 4.197-9.681 9.35-9.681.258 0 .512.019.763.042v-5.28c-.254-.011-.505-.038-.763-.038-6.913 0-12.683 5.03-14.102 11.745H1.742C3.21 7.877 10.222 1.583 18.633 1.583V0C8.834 0 .803 7.805 0 17.735h5.82c.752-6.348 5.806-11.326 12.047-11.708v2.114c-5.647.408-10.112 5.268-10.112 11.222 0 6.222 4.87 11.265 10.878 11.265 6.009 0 10.879-5.043 10.879-11.265h-6.149z"/><path fill="#fff" d="M6.027 22.27H.14c1.072 7.382 6.174 13.386 12.909 15.568v4.166h1.525V36.64C8.45 35.1 3.599 30.155 2.012 23.85h2.847c1.783 5.874 6.963 10.181 13.163 10.448v3.468h1.525v-5.07c-.306.023-.611.05-.921.05-6.156 0-11.313-4.49-12.599-10.476m29.678-3.627h-1.548c.011.251.037.5.037.755 0 5.669-2.83 10.662-7.099 13.561v1.87C32.25 31.753 35.72 26 35.72 19.397c.004-.252-.003-.508-.014-.755"/><path fill="#00ffa3" d="M21.253 17.384c-.918-.69-1.279-.344-1.419-.058a.38.38 0 0 1-.339.222q-.02.001-.04-.004a.38.38 0 0 1-.34-.374c-.021-.816.495-1.637.495-1.637a6.2 6.2 0 0 1 1.643 1.85m.847 3.182a6.3 6.3 0 0 1-.35 2.094c-.192-.335-.262-.736-.284-1.087-.022-.389-.36-.683-.733-.622l-.022.004c-.515.076-.99-.301-1.057-.835a4 4 0 0 1-.033-.656s.074-.946.508-1.4a2 2 0 0 1 .232-.214.46.46 0 0 1 .335-.088c.428.058.748-.019.748-.019.42.85.656 1.808.656 2.823m-5.018-5.173-.722.977c-.095-.748-.95-1.389-.725-1.37 1.13.1 1.447.393 1.447.393m-1.499 1.034a.63.63 0 0 1-.232.935c-.53.252-1.257.648-1.588 1.075a.57.57 0 0 1-.586.206c-.272-.072-.615-.064-.821.306-.376.683 1.083 1.465.998 2.338q.001-.007-.004-.008a.7.7 0 0 0-.394-.476c-.512-.23-.972-.584-1.263-1.133-.638-1.202-.185-2.633.261-3.563a6 6 0 0 1 1.93-1.294 6.9 6.9 0 0 1 1.699 1.614"/><path fill="#00ffa3" d="M16.987 22.411c.56.351.692 1.137.276 1.66-.232.294-.501.61-.77.915l-.932 1.023a16 16 0 0 1-.612.637c-.556-.836-.357-2.423-.357-2.423l-.582-.423a1.49 1.49 0 0 1-.6-1.373c.055-.5.007-.89-.052-1.149.494-.16.995-.24 1.348-.278a.91.91 0 0 1 .748.263c.394.397 1.01.82 1.533 1.148"/></svg>