<svg xmlns="http://www.w3.org/2000/svg" width="512" height="512" fill="none" viewBox="0 0 512 512"><g clip-path="url(#a)"><path fill="#ccc" d="M0 0h512v512H0z"/><path fill="#fff" d="M164 328.105h76.635q0 21.498.569 27.205.57 5.517 4.553 9.323 4.173 3.805 11.191 3.805 5.88 0 9.675-3.615 3.793-3.615 4.173-9.322.569-5.708.569-23.021v-49.084q-5.691 12.366-17.072 18.644-11.382 6.088-28.264 6.088-21.055 0-37.18-11.415-16.124-11.415-20.486-27.396Q164 253.337 164 226.131v-24.542q0-32.343 2.466-48.134 2.656-15.79 13.278-29.108 10.623-13.508 29.402-20.927T252.775 96q30.73 0 50.458 8.561t30.54 24.733q10.813 15.98 12.52 33.674t1.707 68.49v42.806q0 54.982-1.518 73.627-1.517 18.453-13.278 35.006-11.57 16.551-31.489 24.922Q281.798 416 255.621 416q-32.438 0-53.114-10.464-20.486-10.464-29.592-29.488Q164 357.022 164 328.105m76.635-96.076q0 19.405 4.932 23.971 5.121 4.566 10.433 4.566 7.966 0 11.571-5.707 3.794-5.898 3.794-22.83v-55.744q0-20.356-3.604-26.635-3.415-6.278-11.571-6.278-4.932 0-10.244 4.947-5.311 4.756-5.311 26.064z"/><g clip-path="url(#b)"><path fill="#999" d="M392 392h120v120H392z"/><g fill="#fff" clip-path="url(#c)"><path d="M477.312 407h-50.624C415.814 407 407 415.814 407 426.688v50.624c0 10.874 8.814 19.688 19.688 19.688h50.624c10.874 0 19.688-8.814 19.688-19.688v-50.624c0-10.874-8.814-19.688-19.688-19.688m14.063 70.312c0 7.767-6.296 14.063-14.063 14.063h-50.624c-7.767 0-14.063-6.296-14.063-14.063v-50.624c0-7.767 6.296-14.063 14.063-14.063h50.624c7.767 0 14.063 6.296 14.063 14.063z"/><path d="M435.125 426.688H429.5a2.81 2.81 0 0 0-2.812 2.812v5.625a2.813 2.813 0 0 0 2.812 2.813h5.625a2.814 2.814 0 0 0 2.813-2.813V429.5a2.813 2.813 0 0 0-2.813-2.812m0 19.687H429.5a2.81 2.81 0 0 0-2.812 2.813v5.624a2.81 2.81 0 0 0 2.812 2.813h5.625a2.813 2.813 0 0 0 2.813-2.813v-5.624a2.813 2.813 0 0 0-2.813-2.813m0 19.687H429.5a2.813 2.813 0 0 0-2.812 2.813v5.625a2.81 2.81 0 0 0 2.812 2.812h5.625a2.813 2.813 0 0 0 2.813-2.812v-5.625a2.814 2.814 0 0 0-2.813-2.813m8.437-36.562h33.75v5.625h-33.75zm0 19.688h33.75v5.624h-33.75zm0 19.687h33.75v5.625h-33.75z"/></g></g></g><defs><clipPath id="a"><path fill="#fff" d="M0 0h512v512H0z"/></clipPath><clipPath id="b"><path fill="#fff" d="M392 392h120v120H392z"/></clipPath><clipPath id="c"><path fill="#fff" d="M407 407h90v90h-90z"/></clipPath></defs></svg>