<svg xmlns="http://www.w3.org/2000/svg" width="256" height="256" fill="none" viewBox="0 0 256 256"><rect width="256" height="256" fill="#ccc" rx="50"/><path fill="#fff" d="M82 164.052h38.318q0 10.75.284 13.603.285 2.759 2.276 4.661 2.087 1.903 5.596 1.903 2.94 0 4.837-1.808 1.897-1.807 2.087-4.661.284-2.853.284-11.51v-24.542q-2.844 6.183-8.536 9.322-5.69 3.044-14.132 3.044-10.527 0-18.59-5.707-8.06-5.708-10.243-13.698Q82 126.669 82 113.065v-12.271q0-16.17 1.233-24.066 1.327-7.896 6.64-14.554 5.31-6.754 14.7-10.464T126.388 48q15.365 0 25.228 4.28t15.271 12.367q5.406 7.991 6.259 16.837t.854 34.245v21.403q0 27.49-.759 36.813-.759 9.228-6.639 17.503-5.785 8.276-15.744 12.462-9.959 4.09-23.048 4.09-16.218 0-26.556-5.232-10.244-5.232-14.796-14.744Q82 178.511 82 164.052m38.318-48.038q0 9.703 2.466 11.986 2.56 2.283 5.216 2.283 3.983 0 5.786-2.854 1.896-2.949 1.896-11.415V88.143q0-10.179-1.802-13.318-1.707-3.14-5.785-3.139-2.466 0-5.122 2.473-2.655 2.379-2.655 13.032z"/><path fill="#999" d="M166 228c0-27.614 22.386-50 50-50h40v78h-90z"/><path fill="#fff" d="M232.053 228.105v2.858h-4.816q-1.741 0-2.453-.263-.711-.248-.969-.758-.242-.51-.242-1.837-2.166-.059-3.726-1.094-1.559-1.035-2.059-2.625-.5-1.603-.5-4.783v-7.306q0-2.406.288-3.66.303-1.269 1.227-2.377.923-1.122 2.377-1.691t3.226-.569q2.135 0 3.801.7 1.68.7 2.498 1.779.834 1.079 1.075 2.246.258 1.152.258 3.441v7.671q0 3.15-.318 4.272a3.27 3.27 0 0 1-1.227 1.794q-.893.656-2.392 1.006.045.788.333.992.303.204 1.408.204zm-6.39-17.543q0-1.647-.197-2.1-.182-.466-.773-.466-.5 0-.772.379-.257.365-.257 2.187v11.024q0 2.057.166 2.538.182.481.818.481.651 0 .833-.554t.182-2.64zm-12.933-6.066 3.65 23.609h-6.527l-.318-4.244h-2.287l-.378 4.244h-6.603l3.241-23.609zm-3.377 15.18q-.484-4.01-.969-9.901-.97 6.766-1.211 9.901zM190 204.496h10.797v4.725h-4.422v4.476h3.938v4.492h-3.938v9.916H190z"/></svg>